<svg width="9" height="13" viewBox="0 0 9 13" fill="none" xmlns="http://www.w3.org/2000/svg">
<path d="M0.927197 12.0204C0.734814 12.0206 0.54713 11.966 0.390219 11.864C0.233309 11.7621 0.114963 11.618 0.051625 11.4517C-0.0117134 11.2854 -0.0169002 11.1052 0.0367858 10.936C0.0904718 10.7669 0.200365 10.6173 0.351197 10.5079L6.5512 6.00997L0.351197 1.51202C0.255923 1.44283 0.176468 1.35713 0.117367 1.25983C0.0582673 1.16253 0.0206796 1.05552 0.00675076 0.944915C-0.00717803 0.834312 0.00282378 0.722279 0.0361869 0.615215C0.06955 0.508151 0.125622 0.408153 0.201197 0.320927C0.276773 0.233702 0.370374 0.160959 0.476657 0.106852C0.582939 0.0527441 0.699821 0.0183318 0.82063 0.00557967C0.941439 -0.00717242 1.06381 0.00198444 1.18075 0.032529C1.2977 0.0630736 1.40692 0.114407 1.5022 0.183598L8.6132 5.3453C8.72269 5.42467 8.81116 5.52569 8.87198 5.6408C8.9328 5.7559 8.96439 5.88211 8.96439 6.00997C8.96439 6.13784 8.9328 6.26404 8.87198 6.37915C8.81116 6.49425 8.72269 6.59527 8.6132 6.67464L1.5022 11.8373C1.33901 11.956 1.13565 12.0206 0.927197 12.0204Z" fill="white"/>
</svg>
