<svg width="26" height="24" viewBox="0 0 26 24" fill="none" xmlns="http://www.w3.org/2000/svg">
<path d="M20.687 23.1801H4.632C3.40384 23.1791 2.22629 22.732 1.35785 21.9369C0.489412 21.1418 0.00105921 20.0638 0 18.9394V4.24069C0.00105921 3.11629 0.489412 2.03821 1.35785 1.24314C2.22629 0.448067 3.40384 0.000969732 4.632 0H20.687C21.9152 0.000969732 23.0927 0.448067 23.9611 1.24314C24.8296 2.03821 25.3179 3.11629 25.319 4.24069V18.9394C25.3179 20.0638 24.8296 21.1418 23.9611 21.9369C23.0927 22.732 21.9152 23.1791 20.687 23.1801ZM4.632 1.69646C3.89521 1.69719 3.18882 1.96547 2.66783 2.44245C2.14684 2.91943 1.85379 3.56614 1.853 4.24069V18.9394C1.85379 19.6139 2.14684 20.2606 2.66783 20.7376C3.18882 21.2146 3.89521 21.4829 4.632 21.4836H20.687C21.4238 21.4829 22.1302 21.2146 22.6512 20.7376C23.1722 20.2606 23.4652 19.6139 23.466 18.9394V4.24069C23.4652 3.56614 23.1722 2.91943 22.6512 2.44245C22.1302 1.96547 21.4238 1.69719 20.687 1.69646H4.632Z" fill="white"/>
<path d="M9.72212 17.6008C9.52974 17.601 9.34205 17.5464 9.18514 17.4445C9.02823 17.3426 8.90989 17.1985 8.84655 17.0322C8.78321 16.8658 8.77802 16.6856 8.83171 16.5165C8.88539 16.3473 8.99529 16.1977 9.14612 16.0884L15.3461 11.5904L9.14612 7.09246C9.05084 7.02327 8.97139 6.93758 8.91229 6.84027C8.85319 6.74297 8.8156 6.63596 8.80167 6.52536C8.78774 6.41476 8.79775 6.30272 8.83111 6.19566C8.86447 6.0886 8.92054 5.9886 8.99612 5.90137C9.07169 5.81415 9.1653 5.7414 9.27158 5.6873C9.37786 5.63319 9.49474 5.59878 9.61555 5.58602C9.73636 5.57327 9.85873 5.58243 9.97567 5.61297C10.0926 5.64352 10.2018 5.69485 10.2971 5.76404L17.4081 10.9257C17.5176 11.0051 17.6061 11.1061 17.6669 11.2212C17.7277 11.3363 17.7593 11.4626 17.7593 11.5904C17.7593 11.7183 17.7277 11.8445 17.6669 11.9596C17.6061 12.0747 17.5176 12.1757 17.4081 12.2551L10.2971 17.4177C10.1339 17.5365 9.93057 17.601 9.72212 17.6008Z" fill="white"/>
</svg>
