<svg width="27" height="27" viewBox="0 0 27 27" fill="none" xmlns="http://www.w3.org/2000/svg">
<path d="M27 3.37436H0V0H27V3.37436ZM16.8754 10.1231H0V6.74872H16.8754V10.1231ZM27 16.9445H0V13.5702H27V16.9445Z" fill="white"/>
<path d="M1.68744 26.323C2.61938 26.323 3.37487 25.5676 3.37487 24.6358C3.37487 23.704 2.61938 22.9486 1.68744 22.9486C0.755491 22.9486 0 23.704 0 24.6358C0 25.5676 0.755491 26.323 1.68744 26.323Z" fill="white"/>
<path d="M9.75384 24.6317C9.75425 24.9659 9.65548 25.2928 9.47004 25.5709C9.2846 25.8489 9.02082 26.0658 8.71208 26.1939C8.40334 26.3221 8.06353 26.3557 7.73563 26.2907C7.40774 26.2257 7.10652 26.0648 6.87007 25.8286C6.63363 25.5923 6.4726 25.2912 6.40736 24.9634C6.34212 24.6356 6.3756 24.2959 6.50357 23.9871C6.63154 23.6783 6.84825 23.4144 7.12626 23.2289C7.40428 23.0433 7.7311 22.9443 8.06538 22.9445C8.51346 22.9445 8.94319 23.1225 9.26003 23.4393C9.57687 23.7561 9.75487 24.1857 9.75487 24.6338L9.75384 24.6317Z" fill="white"/>
<path d="M14.4423 26.323C15.3742 26.323 16.1297 25.5676 16.1297 24.6358C16.1297 23.704 15.3742 22.9486 14.4423 22.9486C13.5104 22.9486 12.7549 23.704 12.7549 24.6358C12.7549 25.5676 13.5104 26.323 14.4423 26.323Z" fill="white"/>
</svg>
