<svg width="27" height="27" viewBox="0 0 27 27" fill="none" xmlns="http://www.w3.org/2000/svg">
<path d="M19.5745 0.000397707C18.4192 0.0100216 17.2792 0.289474 16.2313 0.819922C15.1835 1.35037 14.2521 2.11949 13.5 3.07544C12.7478 2.11937 11.8163 1.35018 10.7683 0.819729C9.72025 0.289277 8.58007 0.0098883 7.4246 0.000397707C6.44696 -0.0100943 5.47722 0.192055 4.57212 0.595016C3.66702 0.997977 2.84475 1.59366 2.15341 2.3472C1.46208 3.10074 0.91558 3.997 0.545886 4.98354C0.176191 5.97009 -0.0092695 7.02709 0.00035638 8.09271C0.00035638 13.6549 4.5897 18.1871 11.5423 25.0727L13.5 27L15.4577 25.0578C22.4094 18.1861 26.9996 13.6549 26.9996 8.09271C27.0093 7.02701 26.8238 5.96993 26.454 4.98332C26.0843 3.99672 25.5377 3.10041 24.8463 2.34686C24.1549 1.59331 23.3325 0.997648 22.4273 0.594743C21.5221 0.191837 20.5523 -0.0102194 19.5745 0.000397707ZM13.6346 22.8809L13.5 23.0277L13.3654 22.8809C6.93926 16.5393 2.70063 12.3454 2.70063 8.09271C2.68534 7.41185 2.79711 6.73471 3.02914 6.10235C3.26118 5.46999 3.60864 4.8956 4.05047 4.41402C4.49229 3.93244 5.01926 3.5537 5.59942 3.30079C6.17957 3.04788 6.80081 2.92606 7.42546 2.94272C8.45146 2.94818 9.45375 3.27954 10.3097 3.89624C11.1656 4.51294 11.838 5.38823 12.2446 6.41499H14.7691C15.171 5.38834 15.8399 4.51244 16.6933 3.8954C17.5466 3.27835 18.5471 2.94716 19.5711 2.94272C20.1958 2.92606 20.817 3.04788 21.3972 3.30079C21.9773 3.5537 22.5043 3.93244 22.9461 4.41402C23.3879 4.8956 23.7354 5.46999 23.9674 6.10235C24.1995 6.73471 24.3112 7.41185 24.2959 8.09271C24.2994 12.3454 20.0599 16.5393 13.6346 22.8809Z" fill="white"/>
</svg>
