<svg width="29" height="29" viewBox="0 0 29 29" fill="none" xmlns="http://www.w3.org/2000/svg">
<path d="M24.9022 10.6977H3.59944C3.1684 10.6986 2.74312 10.7967 2.35524 10.9847C1.96736 11.1727 1.62687 11.4457 1.35912 11.7835C1.09315 12.1209 0.907272 12.5142 0.815497 12.9339C0.723722 13.3536 0.72845 13.7886 0.829326 14.2062L3.11343 23.5584C3.44354 24.7637 4.16168 25.8265 5.15672 26.5824C6.15209 27.3399 7.37077 27.75 8.62447 27.75H19.8742C21.1279 27.75 22.3466 27.3399 23.342 26.5824C24.337 25.8265 25.0552 24.7637 25.3853 23.5584L27.6694 14.2077C27.8231 13.5773 27.7557 12.9132 27.4783 12.3266C27.2009 11.7399 26.7305 11.2664 26.1457 10.9852C25.7572 10.7967 25.3311 10.6984 24.8993 10.6977M8.53982 16.3808V22.0654M14.2508 16.3808V22.0654M19.9618 16.3808V22.0654M24.2454 10.6977C24.2449 9.39007 23.986 8.09545 23.4836 6.88822C22.9811 5.68099 22.2451 4.58495 21.3177 3.66308C19.4396 1.79624 16.8989 0.74889 14.2508 0.750001C11.6028 0.74889 9.06197 1.79624 7.18395 3.66308C6.25683 4.58507 5.52104 5.68116 5.01885 6.88839C4.51666 8.09561 4.25798 9.39017 4.25767 10.6977" stroke="white" stroke-width="1.5" stroke-linecap="round" stroke-linejoin="round"/>
</svg>
